<mxfile host="app.diagrams.net" modified="2023-12-09T11:52:44.205Z" agent="Mozilla/5.0 (Windows NT 10.0; Win64; x64; rv:120.0) Gecko/20100101 Firefox/120.0" etag="tS25GPCD4-o4O72BksQU" version="22.1.7" type="device">
  <diagram id="prtHgNgQTEPvFCAcTncT" name="Page-1">
    <mxGraphModel dx="1434" dy="746" grid="1" gridSize="10" guides="1" tooltips="1" connect="1" arrows="1" fold="1" page="1" pageScale="1" pageWidth="827" pageHeight="1169" math="0" shadow="0">
      <root>
        <mxCell id="0" />
        <mxCell id="1" parent="0" />
        <mxCell id="dNxyNK7c78bLwvsdeMH5-19" value="Datapool" style="swimlane;html=1;childLayout=stackLayout;resizeParent=1;resizeParentMax=0;horizontal=0;startSize=20;horizontalStack=0;" parent="1" vertex="1">
          <mxGeometry x="40" y="120" width="640" height="570" as="geometry" />
        </mxCell>
        <mxCell id="dNxyNK7c78bLwvsdeMH5-20" value="index.php" style="swimlane;html=1;startSize=20;horizontal=0;" parent="dNxyNK7c78bLwvsdeMH5-19" vertex="1">
          <mxGeometry x="20" width="620" height="120" as="geometry" />
        </mxCell>
        <mxCell id="dNxyNK7c78bLwvsdeMH5-23" value="Browser" style="ellipse;whiteSpace=wrap;html=1;fillColor=#dae8fc;strokeColor=#6c8ebf;" parent="dNxyNK7c78bLwvsdeMH5-20" vertex="1">
          <mxGeometry x="28" y="30" width="60" height="60" as="geometry" />
        </mxCell>
        <mxCell id="dNxyNK7c78bLwvsdeMH5-24" value="Creates instance of&lt;br&gt;Root" style="rounded=0;whiteSpace=wrap;html=1;fontFamily=Helvetica;fontSize=12;fontColor=#000000;align=center;" parent="dNxyNK7c78bLwvsdeMH5-20" vertex="1">
          <mxGeometry x="111" y="30" width="121" height="60" as="geometry" />
        </mxCell>
        <mxCell id="dNxyNK7c78bLwvsdeMH5-32" value="Browser" style="ellipse;whiteSpace=wrap;html=1;fillColor=#dae8fc;strokeColor=#6c8ebf;" parent="dNxyNK7c78bLwvsdeMH5-20" vertex="1">
          <mxGeometry x="537" y="30" width="60" height="60" as="geometry" />
        </mxCell>
        <mxCell id="dNxyNK7c78bLwvsdeMH5-25" value="" style="edgeStyle=orthogonalEdgeStyle;rounded=0;orthogonalLoop=1;jettySize=auto;html=1;entryX=0;entryY=0.5;entryDx=0;entryDy=0;" parent="dNxyNK7c78bLwvsdeMH5-20" source="dNxyNK7c78bLwvsdeMH5-23" target="dNxyNK7c78bLwvsdeMH5-24" edge="1">
          <mxGeometry relative="1" as="geometry" />
        </mxCell>
        <mxCell id="hF1_7_iLyHvrhmtnyJ__-1" value="&lt;div&gt;../php/Root.php&lt;/div&gt;" style="swimlane;html=1;startSize=20;horizontal=0;" vertex="1" parent="dNxyNK7c78bLwvsdeMH5-19">
          <mxGeometry x="20" y="120" width="620" height="110" as="geometry" />
        </mxCell>
        <mxCell id="hF1_7_iLyHvrhmtnyJ__-3" value="method run" style="rounded=0;whiteSpace=wrap;html=1;fontFamily=Helvetica;fontSize=12;fontColor=#000000;align=center;" vertex="1" parent="hF1_7_iLyHvrhmtnyJ__-1">
          <mxGeometry x="216" y="50" width="280" height="20" as="geometry" />
        </mxCell>
        <mxCell id="hF1_7_iLyHvrhmtnyJ__-17" value="&lt;div&gt;method&lt;/div&gt;&lt;div&gt;__construct&lt;/div&gt;" style="rounded=0;whiteSpace=wrap;html=1;fontFamily=Helvetica;fontSize=12;fontColor=#000000;align=center;" vertex="1" parent="hF1_7_iLyHvrhmtnyJ__-1">
          <mxGeometry x="102" y="35" width="78" height="50" as="geometry" />
        </mxCell>
        <mxCell id="dNxyNK7c78bLwvsdeMH5-21" value="../php/Foundation/Backbone.php" style="swimlane;html=1;startSize=20;horizontal=0;" parent="dNxyNK7c78bLwvsdeMH5-19" vertex="1">
          <mxGeometry x="20" y="230" width="620" height="220" as="geometry" />
        </mxCell>
        <mxCell id="dNxyNK7c78bLwvsdeMH5-26" value="method addHtmlPageBackbone" style="rounded=0;whiteSpace=wrap;html=1;fontFamily=Helvetica;fontSize=12;fontColor=#000000;align=center;" parent="dNxyNK7c78bLwvsdeMH5-21" vertex="1">
          <mxGeometry x="257" y="10" width="148" height="40" as="geometry" />
        </mxCell>
        <mxCell id="hF1_7_iLyHvrhmtnyJ__-7" value="method addHtmlPageHeader" style="rounded=0;whiteSpace=wrap;html=1;fontFamily=Helvetica;fontSize=12;fontColor=#000000;align=center;" vertex="1" parent="dNxyNK7c78bLwvsdeMH5-21">
          <mxGeometry x="287" y="66" width="157" height="40" as="geometry" />
        </mxCell>
        <mxCell id="hF1_7_iLyHvrhmtnyJ__-9" value="&lt;div&gt;method&lt;/div&gt;&lt;div&gt;finalizePage&lt;/div&gt;" style="rounded=0;whiteSpace=wrap;html=1;fontFamily=Helvetica;fontSize=12;fontColor=#000000;align=center;" vertex="1" parent="dNxyNK7c78bLwvsdeMH5-21">
          <mxGeometry x="446" y="168" width="100" height="40" as="geometry" />
        </mxCell>
        <mxCell id="hF1_7_iLyHvrhmtnyJ__-8" value="&lt;div&gt;method&lt;/div&gt;&lt;div&gt;addHtmlPageBody&lt;/div&gt;" style="rounded=0;whiteSpace=wrap;html=1;fontFamily=Helvetica;fontSize=12;fontColor=#000000;align=center;" vertex="1" parent="dNxyNK7c78bLwvsdeMH5-21">
          <mxGeometry x="315" y="120" width="158" height="40" as="geometry" />
        </mxCell>
        <mxCell id="hF1_7_iLyHvrhmtnyJ__-14" value="" style="edgeStyle=orthogonalEdgeStyle;rounded=0;orthogonalLoop=1;jettySize=auto;html=1;endArrow=classic;endFill=1;entryX=0;entryY=0.5;entryDx=0;entryDy=0;exitX=1;exitY=0.5;exitDx=0;exitDy=0;" edge="1" parent="dNxyNK7c78bLwvsdeMH5-21" source="hF1_7_iLyHvrhmtnyJ__-7" target="hF1_7_iLyHvrhmtnyJ__-8">
          <mxGeometry relative="1" as="geometry">
            <mxPoint x="437" y="83" as="sourcePoint" />
            <mxPoint x="300" y="141" as="targetPoint" />
            <Array as="points">
              <mxPoint x="456" y="86" />
              <mxPoint x="456" y="113" />
              <mxPoint x="296" y="113" />
              <mxPoint x="296" y="140" />
            </Array>
          </mxGeometry>
        </mxCell>
        <mxCell id="hF1_7_iLyHvrhmtnyJ__-16" value="" style="edgeStyle=orthogonalEdgeStyle;rounded=0;orthogonalLoop=1;jettySize=auto;html=1;endArrow=classic;endFill=1;entryX=0;entryY=0.5;entryDx=0;entryDy=0;exitX=1;exitY=0.5;exitDx=0;exitDy=0;" edge="1" parent="dNxyNK7c78bLwvsdeMH5-21" source="dNxyNK7c78bLwvsdeMH5-26" target="hF1_7_iLyHvrhmtnyJ__-7">
          <mxGeometry relative="1" as="geometry">
            <mxPoint x="437" y="31" as="sourcePoint" />
            <mxPoint x="289" y="85" as="targetPoint" />
            <Array as="points">
              <mxPoint x="416" y="30" />
              <mxPoint x="416" y="58" />
              <mxPoint x="266" y="58" />
              <mxPoint x="266" y="86" />
            </Array>
          </mxGeometry>
        </mxCell>
        <mxCell id="hF1_7_iLyHvrhmtnyJ__-22" value="&lt;div&gt;method&lt;/div&gt;&lt;div&gt;__construct&lt;/div&gt;" style="rounded=0;whiteSpace=wrap;html=1;fontFamily=Helvetica;fontSize=12;fontColor=#000000;align=center;" vertex="1" parent="dNxyNK7c78bLwvsdeMH5-21">
          <mxGeometry x="168" y="80" width="78" height="50" as="geometry" />
        </mxCell>
        <mxCell id="dNxyNK7c78bLwvsdeMH5-22" value="App (e.g. Calendar)" style="swimlane;html=1;startSize=20;horizontal=0;" parent="dNxyNK7c78bLwvsdeMH5-19" vertex="1">
          <mxGeometry x="20" y="450" width="620" height="120" as="geometry" />
        </mxCell>
        <mxCell id="dNxyNK7c78bLwvsdeMH5-34" value="&lt;div&gt;method&lt;/div&gt;&lt;div&gt;run&lt;br&gt;&lt;/div&gt;" style="rounded=0;whiteSpace=wrap;html=1;fontFamily=Helvetica;fontSize=12;fontColor=#000000;align=center;" parent="dNxyNK7c78bLwvsdeMH5-22" vertex="1">
          <mxGeometry x="375" y="39" width="89" height="40" as="geometry" />
        </mxCell>
        <mxCell id="hF1_7_iLyHvrhmtnyJ__-23" value="&lt;div&gt;method&lt;/div&gt;&lt;div&gt;__construct&lt;/div&gt;" style="rounded=0;whiteSpace=wrap;html=1;fontFamily=Helvetica;fontSize=12;fontColor=#000000;align=center;" vertex="1" parent="dNxyNK7c78bLwvsdeMH5-22">
          <mxGeometry x="168" y="35" width="78" height="50" as="geometry" />
        </mxCell>
        <mxCell id="hF1_7_iLyHvrhmtnyJ__-2" value="" style="edgeStyle=orthogonalEdgeStyle;rounded=0;orthogonalLoop=1;jettySize=auto;html=1;endArrow=classic;endFill=1;entryX=0;entryY=0.5;entryDx=0;entryDy=0;" edge="1" parent="dNxyNK7c78bLwvsdeMH5-19" source="hF1_7_iLyHvrhmtnyJ__-3" target="dNxyNK7c78bLwvsdeMH5-32">
          <mxGeometry relative="1" as="geometry" />
        </mxCell>
        <mxCell id="dNxyNK7c78bLwvsdeMH5-37" value="" style="edgeStyle=orthogonalEdgeStyle;rounded=0;orthogonalLoop=1;jettySize=auto;html=1;endArrow=classic;endFill=1;entryX=0.5;entryY=1;entryDx=0;entryDy=0;exitX=1;exitY=0.5;exitDx=0;exitDy=0;" parent="dNxyNK7c78bLwvsdeMH5-19" source="dNxyNK7c78bLwvsdeMH5-34" target="hF1_7_iLyHvrhmtnyJ__-9" edge="1">
          <mxGeometry relative="1" as="geometry">
            <mxPoint x="447" y="510" as="targetPoint" />
          </mxGeometry>
        </mxCell>
        <mxCell id="hF1_7_iLyHvrhmtnyJ__-10" value="" style="edgeStyle=orthogonalEdgeStyle;rounded=0;orthogonalLoop=1;jettySize=auto;html=1;endArrow=classic;endFill=1;entryX=0;entryY=0.5;entryDx=0;entryDy=0;exitX=0.25;exitY=1;exitDx=0;exitDy=0;" edge="1" parent="dNxyNK7c78bLwvsdeMH5-19" source="hF1_7_iLyHvrhmtnyJ__-8" target="dNxyNK7c78bLwvsdeMH5-34">
          <mxGeometry relative="1" as="geometry">
            <mxPoint x="417" y="520" as="sourcePoint" />
            <mxPoint x="443" y="450" as="targetPoint" />
          </mxGeometry>
        </mxCell>
        <mxCell id="hF1_7_iLyHvrhmtnyJ__-11" value="" style="edgeStyle=orthogonalEdgeStyle;rounded=0;orthogonalLoop=1;jettySize=auto;html=1;endArrow=classic;endFill=1;entryX=1;entryY=1;entryDx=0;entryDy=0;exitX=0.5;exitY=0;exitDx=0;exitDy=0;" edge="1" parent="dNxyNK7c78bLwvsdeMH5-19" source="hF1_7_iLyHvrhmtnyJ__-9" target="hF1_7_iLyHvrhmtnyJ__-3">
          <mxGeometry relative="1" as="geometry">
            <mxPoint x="457" y="520" as="sourcePoint" />
            <mxPoint x="478" y="451" as="targetPoint" />
          </mxGeometry>
        </mxCell>
        <mxCell id="hF1_7_iLyHvrhmtnyJ__-20" value="" style="endArrow=classic;html=1;rounded=0;entryX=0.5;entryY=0;entryDx=0;entryDy=0;exitX=0.25;exitY=1;exitDx=0;exitDy=0;" edge="1" parent="dNxyNK7c78bLwvsdeMH5-19" source="dNxyNK7c78bLwvsdeMH5-24" target="hF1_7_iLyHvrhmtnyJ__-17">
          <mxGeometry width="50" height="50" relative="1" as="geometry">
            <mxPoint x="136" y="290" as="sourcePoint" />
            <mxPoint x="186" y="240" as="targetPoint" />
          </mxGeometry>
        </mxCell>
        <mxCell id="hF1_7_iLyHvrhmtnyJ__-25" value="" style="endArrow=classic;html=1;rounded=0;entryX=0;entryY=0.5;entryDx=0;entryDy=0;exitX=0.5;exitY=1;exitDx=0;exitDy=0;edgeStyle=orthogonalEdgeStyle;" edge="1" parent="dNxyNK7c78bLwvsdeMH5-19" source="hF1_7_iLyHvrhmtnyJ__-17" target="hF1_7_iLyHvrhmtnyJ__-22">
          <mxGeometry width="50" height="50" relative="1" as="geometry">
            <mxPoint x="136" y="290" as="sourcePoint" />
            <mxPoint x="186" y="240" as="targetPoint" />
          </mxGeometry>
        </mxCell>
        <mxCell id="hF1_7_iLyHvrhmtnyJ__-27" value="" style="edgeStyle=orthogonalEdgeStyle;rounded=0;orthogonalLoop=1;jettySize=auto;html=1;entryX=0;entryY=0.5;entryDx=0;entryDy=0;exitX=0.5;exitY=1;exitDx=0;exitDy=0;" edge="1" parent="dNxyNK7c78bLwvsdeMH5-19" source="hF1_7_iLyHvrhmtnyJ__-17" target="hF1_7_iLyHvrhmtnyJ__-23">
          <mxGeometry relative="1" as="geometry" />
        </mxCell>
        <mxCell id="hF1_7_iLyHvrhmtnyJ__-28" value="" style="endArrow=classic;html=1;rounded=0;entryX=0;entryY=0.5;entryDx=0;entryDy=0;exitX=0.75;exitY=1;exitDx=0;exitDy=0;edgeStyle=orthogonalEdgeStyle;" edge="1" parent="dNxyNK7c78bLwvsdeMH5-19" source="dNxyNK7c78bLwvsdeMH5-24" target="hF1_7_iLyHvrhmtnyJ__-3">
          <mxGeometry width="50" height="50" relative="1" as="geometry">
            <mxPoint x="136" y="290" as="sourcePoint" />
            <mxPoint x="186" y="240" as="targetPoint" />
          </mxGeometry>
        </mxCell>
        <mxCell id="hF1_7_iLyHvrhmtnyJ__-30" value="" style="endArrow=classic;html=1;rounded=0;entryX=0;entryY=0.5;entryDx=0;entryDy=0;exitX=0;exitY=1;exitDx=0;exitDy=0;edgeStyle=orthogonalEdgeStyle;" edge="1" parent="dNxyNK7c78bLwvsdeMH5-19" source="hF1_7_iLyHvrhmtnyJ__-3" target="dNxyNK7c78bLwvsdeMH5-26">
          <mxGeometry width="50" height="50" relative="1" as="geometry">
            <mxPoint x="136" y="290" as="sourcePoint" />
            <mxPoint x="186" y="240" as="targetPoint" />
            <Array as="points">
              <mxPoint x="236" y="260" />
            </Array>
          </mxGeometry>
        </mxCell>
      </root>
    </mxGraphModel>
  </diagram>
</mxfile>
